# xmcd
#
# Track frame offsets:
# 150
# 16522
# 32798
# 53353
#
# Disc length: 1021 seconds
#
#
# Revision: 0
# Processed by: cddbd v1.5.2PL0 Copyright (c) Steve Scherf et al.
# Submitted via: FreeRIP 2.951 
#
DISCID=1d03fb04
DTITLE=Zsolt Benkõ&The Bluesrivers - Zsolt Benkõ&The Bluesrivers
DYEAR=2000
DGENRE=Blues
TTITLE0=1. Star It Up  (Rubben Ford)
TTITLE1=2. Goin' Down  (Freddy King)
TTITLE2=3. Couldn't Stand The Weather  (Stevie Ray Vaughan)
TTITLE3=4. You Can't Get Always What You Want (Jagger-Richards)
EXTD=
EXTT0=
EXTT1=
EXTT2=
EXTT3=
PLAYORDER=
